<svg id="visual" viewBox="0 0 960 540" width="960" height="540" xmlns="http://www.w3.org/2000/svg" xmlns:xlink="http://www.w3.org/1999/xlink" version="1.1"><rect x="0" y="0" width="960" height="540" fill="#001220"></rect><defs><linearGradient id="grad1_0" x1="43.8%" y1="0%" x2="100%" y2="100%"><stop offset="14.444444444444446%" stop-color="#fbae3c" stop-opacity="1"></stop><stop offset="85.55555555555554%" stop-color="#fbae3c" stop-opacity="1"></stop></linearGradient></defs><defs><linearGradient id="grad1_1" x1="43.8%" y1="0%" x2="100%" y2="100%"><stop offset="14.444444444444446%" stop-color="#fbae3c" stop-opacity="1"></stop><stop offset="85.55555555555554%" stop-color="#eb7458" stop-opacity="1"></stop></linearGradient></defs><defs><linearGradient id="grad1_2" x1="43.8%" y1="0%" x2="100%" y2="100%"><stop offset="14.444444444444446%" stop-color="#b84e6c" stop-opacity="1"></stop><stop offset="85.55555555555554%" stop-color="#eb7458" stop-opacity="1"></stop></linearGradient></defs><defs><linearGradient id="grad1_3" x1="43.8%" y1="0%" x2="100%" y2="100%"><stop offset="14.444444444444446%" stop-color="#b84e6c" stop-opacity="1"></stop><stop offset="85.55555555555554%" stop-color="#713c69" stop-opacity="1"></stop></linearGradient></defs><defs><linearGradient id="grad1_4" x1="43.8%" y1="0%" x2="100%" y2="100%"><stop offset="14.444444444444446%" stop-color="#2d2b4c" stop-opacity="1"></stop><stop offset="85.55555555555554%" stop-color="#713c69" stop-opacity="1"></stop></linearGradient></defs><defs><linearGradient id="grad1_5" x1="43.8%" y1="0%" x2="100%" y2="100%"><stop offset="14.444444444444446%" stop-color="#2d2b4c" stop-opacity="1"></stop><stop offset="85.55555555555554%" stop-color="#001220" stop-opacity="1"></stop></linearGradient></defs><defs><linearGradient id="grad2_0" x1="0%" y1="0%" x2="56.3%" y2="100%"><stop offset="14.444444444444446%" stop-color="#fbae3c" stop-opacity="1"></stop><stop offset="85.55555555555554%" stop-color="#fbae3c" stop-opacity="1"></stop></linearGradient></defs><defs><linearGradient id="grad2_1" x1="0%" y1="0%" x2="56.3%" y2="100%"><stop offset="14.444444444444446%" stop-color="#eb7458" stop-opacity="1"></stop><stop offset="85.55555555555554%" stop-color="#fbae3c" stop-opacity="1"></stop></linearGradient></defs><defs><linearGradient id="grad2_2" x1="0%" y1="0%" x2="56.3%" y2="100%"><stop offset="14.444444444444446%" stop-color="#eb7458" stop-opacity="1"></stop><stop offset="85.55555555555554%" stop-color="#b84e6c" stop-opacity="1"></stop></linearGradient></defs><defs><linearGradient id="grad2_3" x1="0%" y1="0%" x2="56.3%" y2="100%"><stop offset="14.444444444444446%" stop-color="#713c69" stop-opacity="1"></stop><stop offset="85.55555555555554%" stop-color="#b84e6c" stop-opacity="1"></stop></linearGradient></defs><defs><linearGradient id="grad2_4" x1="0%" y1="0%" x2="56.3%" y2="100%"><stop offset="14.444444444444446%" stop-color="#713c69" stop-opacity="1"></stop><stop offset="85.55555555555554%" stop-color="#2d2b4c" stop-opacity="1"></stop></linearGradient></defs><defs><linearGradient id="grad2_5" x1="0%" y1="0%" x2="56.3%" y2="100%"><stop offset="14.444444444444446%" stop-color="#001220" stop-opacity="1"></stop><stop offset="85.55555555555554%" stop-color="#2d2b4c" stop-opacity="1"></stop></linearGradient></defs><g transform="translate(960, 0)"><path d="M0 405C-72.2 395.2 -144.4 385.4 -202.5 350.7C-260.6 316.1 -304.6 256.6 -336 194C-367.4 131.4 -386.2 65.7 -405 0L0 0Z" fill="#131f37"></path><path d="M0 337.5C-60.2 329.3 -120.3 321.2 -168.7 292.3C-217.2 263.4 -253.8 213.8 -280 161.7C-306.2 109.5 -321.8 54.8 -337.5 0L0 0Z" fill="#4d345e"></path><path d="M0 270C-48.1 263.5 -96.3 256.9 -135 233.8C-173.7 210.7 -203.1 171.1 -224 129.3C-244.9 87.6 -257.5 43.8 -270 0L0 0Z" fill="#96446e"></path><path d="M0 202.5C-36.1 197.6 -72.2 192.7 -101.2 175.4C-130.3 158 -152.3 128.3 -168 97C-183.7 65.7 -193.1 32.9 -202.5 0L0 0Z" fill="#d55e64"></path><path d="M0 135C-24.1 131.7 -48.1 128.5 -67.5 116.9C-86.9 105.4 -101.5 85.5 -112 64.7C-122.5 43.8 -128.7 21.9 -135 0L0 0Z" fill="#f88f4a"></path><path d="M0 67.5C-12 65.9 -24.1 64.2 -33.7 58.5C-43.4 52.7 -50.8 42.8 -56 32.3C-61.2 21.9 -64.4 11 -67.5 0L0 0Z" fill="#fbae3c"></path></g><g transform="translate(0, 540)"><path d="M0 -405C76.4 -397.6 152.7 -390.2 202.5 -350.7C252.3 -311.3 275.5 -239.8 304.8 -176C334.2 -112.2 369.6 -56.1 405 0L0 0Z" fill="#131f37"></path><path d="M0 -337.5C63.6 -331.3 127.3 -325.2 168.7 -292.3C210.2 -259.4 229.6 -199.8 254 -146.7C278.5 -93.5 308 -46.8 337.5 0L0 0Z" fill="#4d345e"></path><path d="M0 -270C50.9 -265.1 101.8 -260.1 135 -233.8C168.2 -207.5 183.7 -159.9 203.2 -117.3C222.8 -74.8 246.4 -37.4 270 0L0 0Z" fill="#96446e"></path><path d="M0 -202.5C38.2 -198.8 76.4 -195.1 101.2 -175.4C126.1 -155.6 137.8 -119.9 152.4 -88C167.1 -56.1 184.8 -28.1 202.5 0L0 0Z" fill="#d55e64"></path><path d="M0 -135C25.5 -132.5 50.9 -130.1 67.5 -116.9C84.1 -103.8 91.8 -79.9 101.6 -58.7C111.4 -37.4 123.2 -18.7 135 0L0 0Z" fill="#f88f4a"></path><path d="M0 -67.5C12.7 -66.3 25.5 -65 33.7 -58.5C42 -51.9 45.9 -40 50.8 -29.3C55.7 -18.7 61.6 -9.4 67.5 0L0 0Z" fill="#fbae3c"></path></g></svg>