<svg id="visual" viewBox="0 0 960 540" width="960" height="540" xmlns="http://www.w3.org/2000/svg" xmlns:xlink="http://www.w3.org/1999/xlink" version="1.1"><path d="M0 33L60 23L120 17L180 77L240 82L300 82L360 66L420 55L480 104L540 87L600 114L660 39L720 17L780 77L840 39L900 77L960 71L960 0L900 0L840 0L780 0L720 0L660 0L600 0L540 0L480 0L420 0L360 0L300 0L240 0L180 0L120 0L60 0L0 0Z" fill="#006fcc"></path><path d="M0 82L60 179L120 87L180 179L240 114L300 158L360 120L420 77L480 222L540 239L600 206L660 104L720 120L780 114L840 87L900 114L960 120L960 69L900 75L840 37L780 75L720 15L660 37L600 112L540 85L480 102L420 53L360 64L300 80L240 80L180 75L120 15L60 21L0 31Z" fill="#0860c2"></path><path d="M0 158L60 233L120 325L180 239L240 303L300 244L360 282L420 212L480 395L540 406L600 249L660 244L720 195L780 239L840 276L900 271L960 244L960 118L900 112L840 85L780 112L720 118L660 102L600 204L540 237L480 220L420 75L360 118L300 156L240 112L180 177L120 85L60 177L0 80Z" fill="#1651b8"></path><path d="M0 174L60 255L120 357L180 293L240 341L300 260L360 314L420 249L480 406L540 417L600 271L660 325L720 228L780 282L840 325L900 347L960 320L960 242L900 269L840 274L780 237L720 193L660 242L600 247L540 404L480 393L420 210L360 280L300 242L240 301L180 237L120 323L60 231L0 156Z" fill="#2242ac"></path><path d="M0 212L60 320L120 401L180 330L240 411L300 314L360 401L420 293L480 487L540 444L600 320L660 390L720 276L780 303L840 401L900 428L960 368L960 318L900 345L840 323L780 280L720 226L660 323L600 269L540 415L480 404L420 247L360 312L300 258L240 339L180 291L120 355L60 253L0 172Z" fill="#2c329f"></path><path d="M0 255L60 352L120 455L180 401L240 438L300 379L360 433L420 347L480 503L540 487L600 330L660 417L720 347L780 330L840 444L900 444L960 422L960 366L900 426L840 399L780 301L720 274L660 388L600 318L540 442L480 485L420 291L360 399L300 312L240 409L180 328L120 399L60 318L0 210Z" fill="#331f91"></path><path d="M0 541L60 541L120 541L180 541L240 541L300 541L360 541L420 541L480 541L540 541L600 541L660 541L720 541L780 541L840 541L900 541L960 541L960 420L900 442L840 442L780 328L720 345L660 415L600 328L540 485L480 501L420 345L360 431L300 377L240 436L180 399L120 453L60 350L0 253Z" fill="#390382"></path></svg>